<svg width="187" height="62" viewBox="0 0 187 62" fill="none" xmlns="http://www.w3.org/2000/svg">
<path d="M46.2081 30.2183C46.1671 26.6896 49.2831 24.9702 49.4334 24.8932C47.6704 22.4809 44.9371 22.1473 43.9804 22.1216C41.6844 21.8907 39.4567 23.4048 38.295 23.4048C37.106 23.4048 35.302 22.1345 33.3614 22.173C30.8604 22.2114 28.5233 23.5716 27.2523 25.6759C24.6147 29.9745 26.5827 36.2876 29.111 39.7649C30.382 41.4715 31.858 43.3705 33.7987 43.2935C35.6984 43.2165 36.409 42.1644 38.6914 42.1644C40.96 42.1644 41.6161 43.2935 43.5977 43.255C45.6341 43.2294 46.9187 41.5485 48.1351 39.829C49.5974 37.8787 50.1851 35.9539 50.2124 35.8641C50.1441 35.8513 46.2491 34.4527 46.2081 30.2183Z" fill="white"/>
<path d="M42.4773 19.8376C43.5023 18.6443 44.1993 17.0146 43.9943 15.3594C42.5183 15.4235 40.6733 16.3217 39.6073 17.4894C38.6643 18.5159 37.8306 20.2097 38.0493 21.8008C39.703 21.9163 41.4113 21.0181 42.4773 19.8376Z" fill="white"/>
<path d="M70.1656 38.9949H63.7013L62.1433 43.3063H59.41L65.5326 27.3696H68.3753L74.4979 43.3063H71.7099L70.1656 38.9949ZM64.371 37.006H69.4959L66.9676 30.0129H66.8993L64.371 37.006Z" fill="white"/>
<path d="M87.7407 37.4941C87.7407 41.0997 85.6771 43.4222 82.5748 43.4222C80.8119 43.4222 79.4179 42.678 78.6799 41.3948H78.6252V47.1433H76.0833V31.6814H78.5432V33.619H78.5842C79.2949 32.3743 80.7982 31.5659 82.5202 31.5659C85.6771 31.5659 87.7407 33.8884 87.7407 37.4941ZM85.1305 37.4941C85.1305 35.1459 83.8321 33.5933 81.8642 33.5933C79.9235 33.5933 78.6116 35.1716 78.6116 37.4941C78.6116 39.8294 79.9235 41.4077 81.8642 41.4077C83.8321 41.4077 85.1305 39.8679 85.1305 37.4941Z" fill="white"/>
<path d="M101.353 37.4941C101.353 41.0997 99.2896 43.4222 96.1872 43.4222C94.4242 43.4222 93.0302 42.678 92.2922 41.3948H92.2376V47.1433H89.7092V31.6814H92.1692V33.619H92.2102C92.9209 32.3743 94.4242 31.5659 96.1462 31.5659C99.2896 31.5659 101.353 33.8884 101.353 37.4941ZM98.7429 37.4941C98.7429 35.1459 97.4446 33.5933 95.4766 33.5933C93.5359 33.5933 92.2239 35.1716 92.2239 37.4941C92.2239 39.8294 93.5359 41.4077 95.4766 41.4077C97.4582 41.4077 98.7429 39.8679 98.7429 37.4941Z" fill="white"/>
<path d="M110.36 38.8666C110.551 40.4449 112.177 41.4842 114.419 41.4842C116.564 41.4842 118.095 40.4449 118.095 39.0206C118.095 37.7888 117.166 37.0446 114.965 36.5313L112.765 36.0309C109.649 35.3251 108.2 33.9522 108.2 31.7323C108.2 28.9864 110.756 27.1002 114.378 27.1002C117.958 27.1002 120.418 28.9864 120.5 31.7323H117.931C117.781 30.1412 116.373 29.1789 114.337 29.1789C112.3 29.1789 110.893 30.154 110.893 31.5655C110.893 32.6947 111.781 33.3491 113.968 33.8623L115.84 34.2986C119.325 35.0685 120.774 36.3901 120.774 38.7126C120.774 41.6895 118.245 43.5629 114.227 43.5629C110.469 43.5629 107.927 41.7409 107.763 38.8538H110.36V38.8666Z" fill="white"/>
<path d="M126.266 28.9348V31.6807H128.617V33.5669H126.266V39.9698C126.266 40.9707 126.731 41.4326 127.77 41.4326C128.029 41.4326 128.439 41.3941 128.603 41.3813V43.2547C128.316 43.3188 127.756 43.3701 127.196 43.3701C124.695 43.3701 123.711 42.4848 123.711 40.2393V33.5797H121.907V31.6935H123.711V28.9348H126.266Z" fill="white"/>
<path d="M129.971 37.4934C129.971 33.8364 132.267 31.5396 135.834 31.5396C139.415 31.5396 141.697 33.8364 141.697 37.4934C141.697 41.1632 139.428 43.4472 135.834 43.4472C132.253 43.4472 129.971 41.1632 129.971 37.4934ZM139.128 37.4934C139.128 34.9913 137.897 33.5028 135.847 33.5028C133.797 33.5028 132.567 34.9913 132.567 37.4934C132.567 40.0083 133.784 41.484 135.847 41.484C137.911 41.484 139.128 40.0083 139.128 37.4934Z" fill="white"/>
<path d="M143.815 31.681H146.234V33.6571H146.289C146.671 32.3483 147.806 31.5527 149.268 31.5527C149.637 31.5527 149.938 31.6041 150.143 31.6426V33.8752C149.938 33.7982 149.5 33.7341 149.008 33.7341C147.368 33.7341 146.357 34.7734 146.357 36.403V43.2935H143.815V31.681Z" fill="white"/>
<path d="M161.84 39.8929C161.499 41.9972 159.312 43.4472 156.511 43.4472C152.916 43.4472 150.675 41.1888 150.675 37.5447C150.675 33.9006 152.916 31.5396 156.401 31.5396C159.818 31.5396 161.977 33.7466 161.977 37.2753V38.0965H153.244V38.2376C153.244 40.2265 154.57 41.5225 156.579 41.5225C157.987 41.5225 159.094 40.8937 159.435 39.8929H161.84ZM153.258 36.4155H159.449C159.394 34.632 158.178 33.4643 156.415 33.4643C154.666 33.4772 153.395 34.6705 153.258 36.4155Z" fill="white"/>
<path d="M64.0561 15.3722C66.4751 15.3722 67.8964 16.7708 67.8964 19.1703C67.8964 21.6211 66.4888 23.0198 64.0561 23.0198H61.104V15.3722H64.0561ZM62.375 21.9419H63.9057C65.6141 21.9419 66.5981 20.9411 66.5981 19.1832C66.5981 17.4509 65.6004 16.45 63.9057 16.45H62.375V21.9419Z" fill="white"/>
<path d="M69.3179 20.1328C69.3179 18.2723 70.4249 17.1302 72.2152 17.1302C74.0055 17.1302 75.1125 18.2594 75.1125 20.1328C75.1125 22.0063 74.0055 23.1354 72.2152 23.1354C70.4249 23.1354 69.3179 22.0063 69.3179 20.1328ZM73.8689 20.1328C73.8689 18.8753 73.2675 18.1439 72.2152 18.1439C71.1629 18.1439 70.5615 18.8753 70.5615 20.1328C70.5615 21.3903 71.1492 22.1217 72.2152 22.1217C73.2812 22.1217 73.8689 21.3903 73.8689 20.1328Z" fill="white"/>
<path d="M82.8339 23.0324H81.5766L80.3056 18.7724H80.21L78.939 23.0324H77.6953L76.0007 17.2582H77.2307L78.3377 21.6723H78.4333L79.7043 17.2582H80.866L82.137 21.6723H82.2326L83.3259 17.2582H84.5423L82.8339 23.0324Z" fill="white"/>
<path d="M85.9503 17.2455H87.1257V18.1694H87.2214C87.522 17.5278 88.137 17.1429 89.0527 17.1429C90.4194 17.1429 91.1847 17.9128 91.1847 19.2857V23.0326H89.9684V19.5809C89.9684 18.657 89.5447 18.1951 88.6427 18.1951C87.7407 18.1951 87.1667 18.7597 87.1667 19.6579V23.0326H85.9503V17.2455Z" fill="white"/>
<path d="M93.1116 15H94.328V23.0325H93.1116V15Z" fill="white"/>
<path d="M96.0231 20.1328C96.0231 18.2723 97.1301 17.1302 98.9204 17.1302C100.711 17.1302 101.818 18.2594 101.818 20.1328C101.818 22.0063 100.711 23.1354 98.9204 23.1354C97.1165 23.1354 96.0231 22.0063 96.0231 20.1328ZM100.574 20.1328C100.574 18.8753 99.9727 18.1439 98.9204 18.1439C97.8681 18.1439 97.2668 18.8753 97.2668 20.1328C97.2668 21.3903 97.8544 22.1217 98.9204 22.1217C99.9727 22.1217 100.574 21.3903 100.574 20.1328Z" fill="white"/>
<path d="M103.102 21.3901C103.102 20.3508 103.922 19.7477 105.384 19.6707L107.052 19.5809V19.0805C107.052 18.4645 106.628 18.1309 105.794 18.1309C105.111 18.1309 104.646 18.3619 104.51 18.7725H103.334C103.457 17.7845 104.455 17.1429 105.849 17.1429C107.393 17.1429 108.268 17.8615 108.268 19.0805V23.0326H107.093V22.2242H106.997C106.628 22.8016 105.958 23.1352 105.152 23.1352C103.963 23.1224 103.102 22.4552 103.102 21.3901ZM107.065 20.9025V20.4149L105.562 20.5048C104.715 20.5561 104.332 20.8255 104.332 21.3388C104.332 21.8649 104.81 22.16 105.466 22.16C106.382 22.16 107.065 21.6211 107.065 20.9025Z" fill="white"/>
<path d="M109.866 20.1326C109.866 18.3105 110.864 17.1557 112.422 17.1557C113.269 17.1557 113.98 17.5278 114.308 18.1694H114.404V15H115.62V23.0325H114.445V22.1215H114.349C113.98 22.7502 113.269 23.1352 112.422 23.1352C110.85 23.1223 109.866 21.9675 109.866 20.1326ZM111.124 20.1326C111.124 21.3644 111.739 22.0958 112.764 22.0958C113.789 22.0958 114.417 21.3516 114.417 20.1326C114.417 18.9264 113.775 18.1694 112.764 18.1694C111.739 18.1822 111.124 18.9264 111.124 20.1326Z" fill="white"/>
<path d="M120.636 20.1328C120.636 18.2723 121.743 17.1302 123.533 17.1302C125.323 17.1302 126.43 18.2594 126.43 20.1328C126.43 22.0063 125.323 23.1354 123.533 23.1354C121.743 23.1354 120.636 22.0063 120.636 20.1328ZM125.187 20.1328C125.187 18.8753 124.585 18.1439 123.533 18.1439C122.481 18.1439 121.879 18.8753 121.879 20.1328C121.879 21.3903 122.467 22.1217 123.533 22.1217C124.585 22.1217 125.187 21.3903 125.187 20.1328Z" fill="white"/>
<path d="M128.071 17.2455H129.246V18.1694H129.342C129.642 17.5278 130.257 17.1429 131.173 17.1429C132.54 17.1429 133.305 17.9128 133.305 19.2857V23.0326H132.089V19.5809C132.089 18.657 131.665 18.1951 130.763 18.1951C129.861 18.1951 129.287 18.7597 129.287 19.6579V23.0326H128.071V17.2455Z" fill="white"/>
<path d="M140.165 15.8082V17.271H141.505V18.2334H140.165V21.2102C140.165 21.8133 140.425 22.0828 141.04 22.0828C141.231 22.0828 141.327 22.07 141.505 22.0571V23.0066C141.313 23.0323 141.081 23.0708 140.849 23.0708C139.496 23.0708 138.963 22.6217 138.963 21.5054V18.2462H137.992V17.2838H138.963V15.8082H140.165Z" fill="white"/>
<path d="M143.145 15H144.347V18.1822H144.443C144.744 17.5406 145.386 17.1429 146.315 17.1429C147.627 17.1429 148.434 17.9256 148.434 19.2985V23.0325H147.217V19.5808C147.217 18.657 146.766 18.195 145.905 18.195C144.908 18.195 144.361 18.7853 144.361 19.6578V23.0325H143.145V15Z" fill="white"/>
<path d="M155.526 21.4671C155.253 22.5065 154.269 23.1352 152.862 23.1352C151.099 23.1352 150.019 22.0061 150.019 20.1583C150.019 18.3106 151.126 17.1429 152.862 17.1429C154.57 17.1429 155.608 18.2464 155.608 20.0557V20.4534H151.263V20.5176C151.304 21.5313 151.932 22.1729 152.903 22.1729C153.64 22.1729 154.146 21.9291 154.365 21.4671H155.526ZM151.263 19.6065H154.365C154.337 18.6955 153.75 18.1053 152.848 18.1053C151.946 18.1053 151.331 18.7083 151.263 19.6065Z" fill="white"/>
<rect x="1" y="1" width="185" height="60" rx="8" stroke="white"/>
</svg>
